<?xml version="1.0" encoding="utf-8"?>
<!-- Generator: Adobe Illustrator 18.0.0, SVG Export Plug-In . SVG Version: 6.00 Build 0)  -->
<!DOCTYPE svg PUBLIC "-//W3C//DTD SVG 1.1//EN" "http://www.w3.org/Graphics/SVG/1.1/DTD/svg11.dtd">
<svg version="1.1" id="Laag_1" xmlns="http://www.w3.org/2000/svg" xmlns:xlink="http://www.w3.org/1999/xlink" x="0px" y="0px"
	 viewBox="0 0 256 256" enable-background="new 0 0 256 256" xml:space="preserve">
<g>
	<g>
		<path fill="#009B9D" d="M188.5,14.1c19.5,16.6,33.6,40.4,30.3,61.6c-5.1,42-64.9,103.9-91.1,132.9c-26.2-29-86.1-91-91.1-132.9
			c-3.3-21.2,10.8-45,30.3-61.6C29.6,35.5,4.6,76,4.6,122.4c0,68.9,55.1,124.7,123,124.7c67.9,0,123-55.8,123-124.7
			C250.6,76,225.6,35.5,188.5,14.1z"/>
		<path fill="#009B9D" d="M138.8,151c0,6.3-5,11.3-11.2,11.3c-6.2,0-11.2-5.1-11.2-11.3c0-6.2,5-11.3,11.2-11.3
			C133.8,139.6,138.8,144.7,138.8,151z"/>
		<path fill="#009B9D" d="M138.8,103.5c0,6.3-5,11.3-11.2,11.3c-6.2,0-11.2-5.1-11.2-11.3c0-6.2,5-11.3,11.2-11.3
			C133.8,92.2,138.8,97.3,138.8,103.5z"/>
		<path fill="#009B9D" d="M98,73.4c14-5.4,24.5-14.2,28.5-21.7c4,7.4,14.5,16.2,28.5,21.7c19.9,7.7,33.5-5.8,29.4-27.9
			c-4.1-22.1-17.2-33.5-30.1-27c-11.5,5.8-23.3,14.7-27.9,22.1c-4.5-7.4-16.3-16.2-27.9-22.1c-12.9-6.6-26,4.9-30.1,27
			C64.4,67.6,78,81.1,98,73.4z"/>
	</g>
</g>
</svg>
